HIERARCHY
ROOT Hips
{
    OFFSET 0.000000 0.000000 0.000000
    CHANNELS 6 Xposition Yposition Zposition Zrotation Xrotation Yrotation
    JOINT Spine
    {
        OFFSET -0.000000 7.724547 0.000000
        CHANNELS 3 Zrotation Xrotation Yrotation
        JOINT Spine1
        {
            OFFSET -0.000000 17.940762 0.000000
            CHANNELS 3 Zrotation Xrotation Yrotation
            JOINT Neck
            {
                OFFSET -0.000000 19.824797 0.000000
                CHANNELS 3 Zrotation Xrotation Yrotation
                JOINT Head
                {
                    OFFSET -0.000000 14.601278 1.884036
                    CHANNELS 3 Zrotation Xrotation Yrotation
                    End Site
                    {
                        OFFSET -0.000000 18.840359 0.000000
                    }
                }
            }
            JOINT LeftShoulder
            {
                OFFSET 3.764927 15.633845 -0.527847
                CHANNELS 3 Zrotation Xrotation Yrotation
                JOINT LeftArm
                {
                    OFFSET 12.860674 0.000000 0.000000
                    CHANNELS 3 Zrotation Xrotation Yrotation
                    JOINT LeftForeArm
                    {
                        OFFSET 30.436468 0.000000 0.000000
                        CHANNELS 3 Zrotation Xrotation Yrotation
                        JOINT LeftHand
                        {
                            OFFSET 23.842159 0.000000 0.000000
                            CHANNELS 3 Zrotation Xrotation Yrotation
                            End Site
                            {
                                OFFSET 14.130269 0.000000 0.000000
                            }
                        }
                    }
                }
            }
            JOINT RightShoulder
            {
                OFFSET -3.769612 15.633845 -0.527847
                CHANNELS 3 Zrotation Xrotation Yrotation
                JOINT RightArm
                {
                    OFFSET -12.860674 0.000000 0.000000
                    CHANNELS 3 Zrotation Xrotation Yrotation
                    JOINT RightForeArm
                    {
                        OFFSET -30.436468 0.000000 0.000000
                        CHANNELS 3 Zrotation Xrotation Yrotation
                        JOINT RightHand
                        {
                            OFFSET -23.842159 0.000000 0.000000
                            CHANNELS 3 Zrotation Xrotation Yrotation
                            End Site
                            {
                                OFFSET -14.130269 0.000000 0.000000
                            }
                        }
                    }
                }
            }
        }
    }
    JOINT LeftUpLeg
    {
        OFFSET 9.420179 0.000000 0.000000
        CHANNELS 3 Zrotation Xrotation Yrotation
        JOINT LeftLeg
        {
            OFFSET -0.000000 -44.529144 0.000000
            CHANNELS 3 Zrotation Xrotation Yrotation
            JOINT LeftFoot
            {
                OFFSET -0.000000 -35.957588 0.000000
                CHANNELS 3 Zrotation Xrotation Yrotation
                JOINT LeftToeBase
                {
                    OFFSET -0.000000 -6.123116 14.130269
                    CHANNELS 3 Zrotation Xrotation Yrotation
                    End Site
                    {
                        OFFSET -0.000000 0.000000 3.768072
                    }
                }
            }
        }
    }
    JOINT RightUpLeg
    {
        OFFSET -9.420179 0.000000 0.000000
        CHANNELS 3 Zrotation Xrotation Yrotation
        JOINT RightLeg
        {
            OFFSET -0.000000 -44.529144 0.000000
            CHANNELS 3 Zrotation Xrotation Yrotation
            JOINT RightFoot
            {
                OFFSET -0.000000 -35.957588 0.000000
                CHANNELS 3 Zrotation Xrotation Yrotation
                JOINT RightToeBase
                {
                    OFFSET -0.000000 -6.123116 14.130269
                    CHANNELS 3 Zrotation Xrotation Yrotation
                    End Site
                    {
                        OFFSET -0.000000 0.000000 3.768072
                    }
                }
            }
        }
    }
}
MOTION
Frames:    10
Frame Time:    0.008333
-147.265717    86.609879    39.693443    1.506244    6.527270    5.757969    -1.219686    -17.667898    -5.469226    -2.625382    5.273310    -1.638350    0.223245    5.258908    1.253054    -1.180490    12.858088    1.615508    6.659245    9.224704    5.006702    -45.714828    46.677334    -39.342625    -1.937361    -23.618887    -35.302734    5.263784    -23.751133    10.214108    -6.232308    7.436457    -10.395901    93.447311    42.285778    -11.117450    168.527802    11.780596    160.222351    174.048691    10.060555    175.163361    -2.773815    3.785931    7.095919    2.984398    22.263664    -8.560413    -0.965591    -16.455080    -2.584110    0.000000    0.000000    0.000000    -3.312404    -21.717497    2.095921    0.852416    -3.437999    -6.307260    12.282522    6.896042    -16.519016    0.000000    0.000000    0.000000    
-147.358688    86.603340    40.531151    1.315554    6.672029    5.860222    -0.849475    -17.880617    -5.460873    -2.827076    5.245982    -1.645907    0.318764    5.211946    1.257688    -1.303082    12.906265    1.667045    6.685452    9.333765    5.164477    -45.835762    46.713909    -39.388042    -1.930552    -23.582819    -35.191662    5.332443    -23.705828    10.209069    -6.178276    7.400540    -10.398798    93.490585    42.260460    -11.185915    168.510834    11.785772    160.372681    174.088303    10.074665    175.199142    -2.473120    3.636605    7.151202    3.202757    23.147600    -8.450246    -1.187815    -15.794985    -3.071581    0.000000    0.000000    0.000000    -3.085895    -21.758093    2.494000    1.007440    -2.772402    -5.881995    11.619017    6.548076    -16.649199    0.000000    0.000000    0.000000    
-147.453415    86.616180    41.366779    1.100260    6.815067    5.930566    -0.436168    -18.095463    -5.432676    -3.041842    5.222470    -1.649066    0.446090    5.147006    1.267396    -1.477711    12.982037    1.742317    6.712630    9.422039    5.317414    -45.979458    46.818092    -39.356266    -1.936683    -23.568407    -35.125870    5.439041    -23.682108    10.237588    -6.130378    7.358584    -10.387173    93.510208    42.280701    -11.196815    168.498703    11.783008    160.537323    174.116302    10.084468    175.217773    -2.156842    3.428962    7.223216    3.439849    24.105186    -8.225770    -1.407307    -15.001216    -3.677101    0.000000    0.000000    0.000000    -2.856540    -21.791208    2.957965    1.250352    -2.073872    -5.422629    10.962474    6.042306    -16.955746    0.000000    0.000000    0.000000    
-147.549896    86.647461    42.199265    0.866870    6.949149    5.972982    0.002245    -18.300558    -5.390422    -3.254017    5.199721    -1.649710    0.608249    5.063326    1.282025    -1.717041    13.089074    1.844745    6.738951    9.490628    5.463947    -46.135723    46.995613    -39.255772    -1.955844    -23.580128    -35.108452    5.575789    -23.685011    10.299515    -6.095253    7.312129    -10.360345    93.507126    42.345646    -11.150969    168.487717    11.768239    160.710159    174.120331    10.083804    175.245468    -1.827817    3.165248    7.319737    3.699086    25.140982    -7.896222    -1.626768    -14.068093    -4.410396    0.000000    0.000000    0.000000    -2.625242    -21.803177    3.442046    1.566233    -1.355844    -4.948512    10.318008    5.403207    -17.328983    0.000000    0.000000    0.000000    
-147.647614    86.695847    43.027775    0.624510    7.066823    5.992435    0.445534    -18.485500    -5.339545    -3.449950    5.176217    -1.649096    0.774550    4.971978    1.307160    -1.972746    13.218081    1.963171    6.764300    9.559884    5.616448    -46.293602    47.227489    -39.126160    -1.989385    -23.608749    -35.121933    5.744514    -23.705507    10.388658    -6.073764    7.260994    -10.316528    93.480217    42.450459    -11.054558    168.476624    11.745909    160.877487    174.106201    10.074297    175.301086    -1.484435    2.851381    7.435209    3.961868    26.255457    -7.486427    -1.839520    -12.996969    -5.245017    0.000000    0.000000    0.000000    -2.385474    -21.773556    3.872345    1.912440    -0.657652    -4.485964    9.716380    4.713446    -17.649887    0.000000    0.000000    0.000000    
-147.746567    86.759064    43.852554    0.384061    7.160793    5.998782    0.869673    -18.645884    -5.289534    -3.618702    5.156606    -1.649316    0.899100    4.897781    1.349229    -2.166461    13.342189    2.077113    6.787053    9.614796    5.751557    -46.524853    47.473915    -38.907906    -2.035912    -23.629642    -35.146751    5.925000    -23.720387    10.490310    -6.063913    7.207489    -10.251447    93.428612    42.586411    -10.912961    168.466537    11.724915    161.023529    174.051254    10.063566    175.399200    -1.129804    2.492833    7.563856    4.221017    27.449293    -7.035213    -2.056695    -11.801159    -6.144147    0.000000    0.000000    0.000000    -2.144483    -21.682928    4.214494    2.266858    -0.010857    -4.029708    9.163104    4.012934    -17.900848    0.000000    0.000000    0.000000    
-147.846741    86.834160    44.674786    0.154848    7.224440    6.006349    1.252800    -18.779411    -5.252788    -3.751970    5.146693    -1.653239    0.961012    4.854870    1.408361    -2.263191    13.443320    2.174106    6.805433    9.638510    5.847428    -46.907242    47.740059    -38.445332    -2.098615    -23.628277    -35.361027    6.118036    -23.715084    10.689735    -6.064112    7.153749    -10.164302    93.355057    42.747448    -10.734093    168.451096    11.711377    161.133957    173.949997    10.056155    175.525116    -0.769665    2.094696    7.699178    4.481812    28.721119    -6.577797    -2.304591    -10.505033    -7.076648    0.000000    0.000000    0.000000    -1.920052    -21.515574    4.466572    2.633995    0.567541    -3.557865    8.633188    3.292036    -18.134586    0.000000    0.000000    0.000000    
-147.946747    86.917801    45.490070    -0.050548    7.268945    6.015251    1.578448    -18.886635    -5.227604    -3.844952    5.137053    -1.659763    0.958159    4.840829    1.481269    -2.261901    13.523783    2.249969    6.817505    9.627728    5.897830    -47.368439    47.998215    -37.924442    -2.162311    -23.620665    -35.459328    6.228895    -23.712233    10.812976    -6.074184    7.098939    -10.058742    93.267250    42.927647    -10.533645    168.412186    11.704043    161.201874    173.829208    10.048862    175.620590    -0.418825    1.642980    7.844547    4.748572    30.068945    -6.131541    -2.596248    -9.138381    -8.012738    0.000000    0.000000    0.000000    -1.726211    -21.284035    4.627495    3.010207    1.071646    -3.078822    8.108330    2.558838    -18.352564    0.000000    0.000000    0.000000    
-148.045349    87.007133    46.292290    -0.222640    7.310724    6.021645    1.837261    -18.969610    -5.207695    -3.896746    5.113194    -1.666643    0.885592    4.851039    1.566035    -2.152990    13.591006    2.299505    6.824558    9.597654    5.914992    -47.914471    48.253059    -37.303738    -2.233994    -23.597994    -35.565742    6.285142    -23.701958    10.927723    -6.092257    7.043650    -9.938143    93.166183    43.123817    -10.322211    168.351959    11.712716    161.218018    173.722916    10.051375    175.657043    -0.092316    1.117502    8.006936    5.028270    31.492744    -5.720315    -2.916800    -7.739063    -8.911589    0.000000    0.000000    0.000000    -1.566809    -21.008924    4.698095    3.378269    1.496631    -2.626504    7.594022    1.848958    -18.512056    0.000000    0.000000    0.000000    
-148.141891    87.101082    47.081188    -0.366861    7.348356    6.037565    2.037390    -19.027231    -5.196573    -3.914432    5.072852    -1.675087    0.729588    4.888353    1.662359    -1.910385    13.639263    2.313264    6.831140    9.584970    5.932269    -48.501194    48.486683    -36.671303    -2.307893    -23.552395    -35.649143    6.268566    -23.676697    11.017850    -6.114804    6.987242    -9.807028    93.048256    43.338619    -10.104753    168.290039    11.755751    161.169449    173.637405    10.081518    175.677994    0.210374    0.518170    8.180889    5.337285    32.991562    -5.389279    -3.244566    -6.363357    -9.724029    0.000000    0.000000    0.000000    -1.432940    -20.684778    4.679448    3.718982    1.829466    -2.235088    7.103514    1.200651    -18.576735    0.000000    0.000000    0.000000    
